<mxfile host="65bd71144e">
    <diagram id="XJwbaeThHUouUPzaBQ6s" name="Page-1">
        <mxGraphModel dx="1618" dy="1190" grid="1" gridSize="10" guides="1" tooltips="1" connect="1" arrows="1" fold="1" page="1" pageScale="1" pageWidth="850" pageHeight="1100" math="0" shadow="0">
            <root>
                <mxCell id="0"/>
                <mxCell id="1" parent="0"/>
                <mxCell id="4" value="" style="edgeStyle=none;html=1;exitX=0.5;exitY=0;exitDx=0;exitDy=0;entryX=0.5;entryY=0;entryDx=0;entryDy=0;" parent="1" source="2" target="3" edge="1">
                    <mxGeometry relative="1" as="geometry">
                        <Array as="points">
                            <mxPoint x="130" y="290"/>
                            <mxPoint x="240" y="290"/>
                            <mxPoint x="330" y="290"/>
                        </Array>
                    </mxGeometry>
                </mxCell>
                <mxCell id="7" value="&lt;font style=&quot;font-size: 20px;&quot;&gt;①输入&lt;/font&gt;" style="edgeLabel;html=1;align=center;verticalAlign=middle;resizable=0;points=[];" parent="4" vertex="1" connectable="0">
                    <mxGeometry x="-0.1" y="1" relative="1" as="geometry">
                        <mxPoint x="5" as="offset"/>
                    </mxGeometry>
                </mxCell>
                <mxCell id="12" style="edgeStyle=none;html=1;entryX=0.5;entryY=0;entryDx=0;entryDy=0;fontSize=20;exitX=0.5;exitY=0;exitDx=0;exitDy=0;" parent="1" source="2" target="8" edge="1">
                    <mxGeometry relative="1" as="geometry">
                        <Array as="points">
                            <mxPoint x="130" y="240"/>
                            <mxPoint x="330" y="240"/>
                            <mxPoint x="530" y="240"/>
                        </Array>
                    </mxGeometry>
                </mxCell>
                <mxCell id="13" value="④修改/确认" style="edgeLabel;html=1;align=center;verticalAlign=middle;resizable=0;points=[];fontSize=20;" parent="12" vertex="1" connectable="0">
                    <mxGeometry x="-0.0355" relative="1" as="geometry">
                        <mxPoint x="11" as="offset"/>
                    </mxGeometry>
                </mxCell>
                <mxCell id="2" value="User" style="rounded=0;whiteSpace=wrap;html=1;fontSize=20;fontStyle=1" parent="1" vertex="1">
                    <mxGeometry x="70" y="340" width="120" height="60" as="geometry"/>
                </mxCell>
                <mxCell id="5" style="edgeStyle=none;html=1;entryX=0.5;entryY=1;entryDx=0;entryDy=0;exitX=0.5;exitY=1;exitDx=0;exitDy=0;" parent="1" source="3" target="2" edge="1">
                    <mxGeometry relative="1" as="geometry">
                        <Array as="points">
                            <mxPoint x="330" y="450"/>
                            <mxPoint x="240" y="450"/>
                            <mxPoint x="130" y="450"/>
                        </Array>
                    </mxGeometry>
                </mxCell>
                <mxCell id="6" value="&lt;font style=&quot;font-size: 20px;&quot;&gt;②追问&lt;/font&gt;" style="edgeLabel;html=1;align=center;verticalAlign=middle;resizable=0;points=[];" parent="5" vertex="1" connectable="0">
                    <mxGeometry x="0.1143" relative="1" as="geometry">
                        <mxPoint x="7" as="offset"/>
                    </mxGeometry>
                </mxCell>
                <mxCell id="9" value="" style="edgeStyle=none;html=1;fontSize=20;fontStyle=1" parent="1" source="3" target="8" edge="1">
                    <mxGeometry relative="1" as="geometry"/>
                </mxCell>
                <mxCell id="3" value="Proxy" style="rounded=0;whiteSpace=wrap;html=1;fontSize=20;fontStyle=1" parent="1" vertex="1">
                    <mxGeometry x="270" y="340" width="120" height="60" as="geometry"/>
                </mxCell>
                <mxCell id="10" style="edgeStyle=none;html=1;entryX=0.5;entryY=1;entryDx=0;entryDy=0;fontSize=20;exitX=0.5;exitY=1;exitDx=0;exitDy=0;" parent="1" source="8" target="2" edge="1">
                    <mxGeometry relative="1" as="geometry">
                        <Array as="points">
                            <mxPoint x="530" y="500"/>
                            <mxPoint x="330" y="500"/>
                            <mxPoint x="130" y="500"/>
                        </Array>
                    </mxGeometry>
                </mxCell>
                <mxCell id="11" value="③执行计划" style="edgeLabel;html=1;align=center;verticalAlign=middle;resizable=0;points=[];fontSize=20;" parent="10" vertex="1" connectable="0">
                    <mxGeometry x="-0.0567" y="2" relative="1" as="geometry">
                        <mxPoint x="-17" as="offset"/>
                    </mxGeometry>
                </mxCell>
                <mxCell id="15" value="" style="edgeStyle=none;html=1;fontSize=20;fontStyle=1" parent="1" source="8" target="14" edge="1">
                    <mxGeometry relative="1" as="geometry"/>
                </mxCell>
                <mxCell id="8" value="Plan" style="whiteSpace=wrap;html=1;fontSize=20;rounded=0;fontStyle=1" parent="1" vertex="1">
                    <mxGeometry x="470" y="340" width="120" height="60" as="geometry"/>
                </mxCell>
                <mxCell id="14" value="Action" style="whiteSpace=wrap;html=1;fontSize=20;rounded=0;fontStyle=1" parent="1" vertex="1">
                    <mxGeometry x="670" y="340" width="120" height="60" as="geometry"/>
                </mxCell>
            </root>
        </mxGraphModel>
    </diagram>
</mxfile>